<?xml version="1.0" encoding="UTF-8" standalone="no"?>
<!-- Created with Inkscape (http://www.inkscape.org/) -->

<svg
   width="50mm"
   height="50mm"
   viewBox="0 0 50 50"
   version="1.1"
   id="svg5"
   xml:space="preserve"
   xmlns="http://www.w3.org/2000/svg"
   xmlns:svg="http://www.w3.org/2000/svg"><defs
     id="defs2" /><g
     id="layer1"
     transform="translate(-83.097839,-69.291389)"><circle
       style="fill:#000000;fill-rule:evenodd;stroke:#000000;stroke-width:0.598958;stroke-linecap:round;stroke-linejoin:round;stroke-miterlimit:7.2"
       id="path1514"
       cx="108.09784"
       cy="94.291389"
       r="24.700521" /><ellipse
       style="fill:#aa0000;fill-rule:evenodd;stroke:none;stroke-width:0.574998;stroke-linecap:round;stroke-linejoin:round;stroke-miterlimit:7.2"
       id="path1514-4"
       cx="108.09784"
       cy="94.291389"
       rx="23.712498"
       ry="23.712502" /><ellipse
       style="fill:none;fill-rule:evenodd;stroke:#000000;stroke-width:0.879;stroke-linecap:round;stroke-linejoin:round;stroke-miterlimit:7.2;stroke-dasharray:none"
       id="path1514-5"
       cx="108.09784"
       cy="94.291389"
       rx="19.760418"
       ry="19.760416" /><path
       style="fill:none;fill-rule:evenodd;stroke:#000000;stroke-width:1.079;stroke-linecap:square;stroke-linejoin:bevel;stroke-miterlimit:7.2;stroke-dasharray:none;stroke-opacity:1"
       d="M 96.474453,104.12717 96.349001,85.30901 116.42171,85.183557"
       id="path5682" /><path
       style="fill:none;fill-rule:evenodd;stroke:#000000;stroke-width:0.683656;stroke-linecap:square;stroke-linejoin:bevel;stroke-miterlimit:7.2;stroke-dasharray:none;stroke-opacity:1"
       d=""
       id="path10222"
       transform="scale(0.26458333)" /><g
       id="g10500"
       transform="matrix(0.80777557,0,0,0.97957076,31.817669,-77.099981)"><g
         id="g10470"><g
           id="g10442"><g
             id="g10416"><g
               id="g10392"><g
                 id="g10342"><g
                   id="g10322"><g
                     id="g10252"><g
                       id="g10236"
                       transform="translate(-1.5080645,-5.1196975)"><path
                         style="fill:none;fill-rule:evenodd;stroke:#000000;stroke-width:1.079;stroke-linecap:square;stroke-linejoin:bevel;stroke-miterlimit:7.2;stroke-dasharray:none;stroke-opacity:1"
                         d="m 88.289475,179.58486 -2.478648,1.44588 c -0.457166,6.7841 4.303958,9.68482 8.781812,12.79635 l 3.157886,-1.9477 c -5.493424,-2.69883 -10.917629,-5.54153 -9.46105,-12.29453 z"
                         id="path9336" /><path
                         style="fill:none;fill-rule:evenodd;stroke:#000000;stroke-width:1.079;stroke-linecap:square;stroke-linejoin:bevel;stroke-miterlimit:7.2;stroke-dasharray:none;stroke-opacity:1"
                         d="m 88.238815,179.8324 c 6.524354,1.26253 9.732507,4.18535 8.818954,11.70517"
                         id="path9338" /><ellipse
                         style="fill:none;fill-rule:evenodd;stroke:#000000;stroke-width:1.22551;stroke-linecap:square;stroke-linejoin:bevel;stroke-miterlimit:7.2;stroke-dasharray:none;stroke-opacity:1"
                         id="path9340"
                         cx="102.98106"
                         cy="176.56706"
                         rx="3.045604"
                         ry="2.8251729" /><path
                         style="fill:none;fill-rule:evenodd;stroke:#000000;stroke-width:0.962093;stroke-linecap:square;stroke-linejoin:bevel;stroke-miterlimit:7.2;stroke-dasharray:none;stroke-opacity:1"
                         d="m 103.01552,173.77724 c -1.02883,1.99652 -1.85732,4.10415 -1.50948,4.61605"
                         id="path10163" /><path
                         style="fill:none;fill-rule:evenodd;stroke:#000000;stroke-width:1.079;stroke-linecap:square;stroke-linejoin:bevel;stroke-miterlimit:7.2;stroke-dasharray:none;stroke-opacity:1"
                         d="m 90.75,183.09677 9.51906,-5.2441"
                         id="path10167" /><path
                         style="fill:none;fill-rule:evenodd;stroke:#000000;stroke-width:1.079;stroke-linecap:square;stroke-linejoin:bevel;stroke-miterlimit:7.2;stroke-dasharray:none;stroke-opacity:1"
                         d="m 100.26906,177.85267 -7.229509,8.48201"
                         id="path10169" /><path
                         style="fill:none;fill-rule:evenodd;stroke:#000000;stroke-width:1.079;stroke-linecap:square;stroke-linejoin:bevel;stroke-miterlimit:7.2;stroke-dasharray:none;stroke-opacity:1"
                         d="m 100.26906,177.85267 -4.994868,9.81265"
                         id="path10171" /><path
                         style="fill:none;fill-rule:evenodd;stroke:#000000;stroke-width:0.683656;stroke-linecap:square;stroke-linejoin:bevel;stroke-miterlimit:7.2;stroke-dasharray:none;stroke-opacity:1"
                         d="m 387.83592,675.5155 c -1.90491,-0.35028 -2.12752,-0.46369 -2.23946,-1.14092 -0.44989,-2.72178 0.72144,-6.8718 3.71571,-13.16473 1.1485,-2.41374 0.89436,-2.26142 2.79857,-1.6774 4.06755,1.2475 6.71898,5.12652 6.10597,8.93298 -0.4979,3.09165 -3.01308,5.78158 -6.32543,6.7649 -1.11323,0.33048 -3.06324,0.4676 -4.05536,0.28517 z"
                         id="path10198"
                         transform="scale(0.26458333)" /><path
                         style="fill:none;fill-rule:evenodd;stroke:#000000;stroke-width:0.683656;stroke-linecap:square;stroke-linejoin:bevel;stroke-miterlimit:7.2;stroke-dasharray:none;stroke-opacity:1"
                         d="m 387.05402,673.9029 c -0.0555,-0.1445 -0.0639,-0.95546 -0.0188,-1.80214 0.066,-1.23968 0.22975,-1.98007 0.84091,-3.80256 0.79727,-2.37746 2.63345,-6.69801 3.1216,-7.34517 l 0.28652,-0.37985 1.25147,0.62371 c 1.56126,0.7781 3.09371,2.26474 3.77762,3.66468 0.4325,0.88533 0.49137,1.18661 0.49137,2.51461 0,1.34251 -0.0554,1.6189 -0.50292,2.50834 -0.64281,1.27762 -2.06754,2.71841 -3.3528,3.3906 -1.19969,0.62744 -2.4979,0.89049 -4.3947,0.89049 -1.11592,0 -1.41984,-0.0532 -1.50023,-0.26271 z"
                         id="path10204"
                         transform="scale(0.26458333)" /><path
                         style="fill:none;fill-rule:evenodd;stroke:#000000;stroke-width:0.683656;stroke-linecap:square;stroke-linejoin:bevel;stroke-miterlimit:7.2;stroke-dasharray:none;stroke-opacity:1"
                         d="m 353.54173,727.20174 c -8.04612,-5.60778 -11.25071,-8.17739 -15.41861,-12.36346 -4.88092,-4.90221 -7.75516,-9.24336 -9.66958,-14.6046 -1.32722,-3.71685 -1.9192,-7.02931 -2.086,-11.67249 l -0.10617,-2.95519 0.40246,-0.2582 c 0.22136,-0.14201 1.23228,-0.74115 2.24651,-1.33142 l 1.84404,-1.07321 0.002,3.61604 c 0.002,4.66654 -0.0337,7.83438 1.83281,11.07455 5.70386,9.9014 19.53832,17.57372 28.38258,25.68869 2.14353,1.96678 3.56236,1.91431 3.56236,2.12775 0,0.20178 -1.06149,0.94649 -3.38512,2.37489 -1.86182,1.14451 -3.43244,2.10155 -3.49027,2.12675 -0.0578,0.0252 -1.91039,-1.21234 -4.11679,-2.7501 z"
                         id="path10224"
                         transform="scale(0.26458333)" /></g><ellipse
                       style="fill:#000000;fill-opacity:1;fill-rule:evenodd;stroke:#000000;stroke-width:0.645848;stroke-linecap:square;stroke-linejoin:bevel;stroke-miterlimit:7.2;stroke-dasharray:none;stroke-opacity:1"
                       id="path10238"
                       cx="102.1569"
                       cy="171.74512"
                       rx="1.6965415"
                       ry="2.1688738" /></g><rect
                     style="fill:#000000;fill-opacity:1;fill-rule:evenodd;stroke:#000000;stroke-width:0.761856;stroke-linecap:square;stroke-linejoin:bevel;stroke-miterlimit:7.2;stroke-dasharray:none;stroke-opacity:1"
                     id="rect10306"
                     width="1.3516949"
                     height="2.8643982"
                     x="84.652603"
                     y="176.05405" /></g><rect
                   style="fill:#000000;fill-opacity:1;fill-rule:evenodd;stroke:#000000;stroke-width:0.225979;stroke-linecap:square;stroke-linejoin:bevel;stroke-miterlimit:7.2;stroke-dasharray:none;stroke-opacity:1"
                   id="rect10324"
                   width="1.8823727"
                   height="2.5526338"
                   x="9.9107637"
                   y="-196.60194"
                   transform="matrix(1,0,-0.38645469,-0.92230839,0,0)" /></g><rect
                 style="fill:#000000;fill-opacity:1;fill-rule:evenodd;stroke:#000000;stroke-width:1.079;stroke-linecap:square;stroke-linejoin:bevel;stroke-miterlimit:7.2;stroke-dasharray:none;stroke-opacity:1"
                 id="rect10372"
                 width="2.9083476"
                 height="0.46342826"
                 x="92.033241"
                 y="186.82233" /></g><rect
               style="fill:#000000;fill-opacity:1;fill-rule:evenodd;stroke:#000000;stroke-width:0.822914;stroke-linecap:square;stroke-linejoin:bevel;stroke-miterlimit:7.2;stroke-dasharray:none;stroke-opacity:1"
               id="rect10394"
               width="2.510814"
               height="2.6656759"
               x="322.28363"
               y="209.00395"
               transform="matrix(0.91424588,0.4051598,-0.96394752,0.26609244,0,0)" /></g><rect
             style="fill:#000000;fill-opacity:1;fill-rule:evenodd;stroke:#000000;stroke-width:1.079;stroke-linecap:square;stroke-linejoin:bevel;stroke-miterlimit:7.2;stroke-dasharray:none;stroke-opacity:1"
             id="rect10418"
             width="1.9953623"
             height="0.95766312"
             x="85.888504"
             y="181.32762" /></g><rect
           style="fill:#000000;fill-opacity:1;fill-rule:evenodd;stroke:#000000;stroke-width:0.572306;stroke-linecap:square;stroke-linejoin:bevel;stroke-miterlimit:7.2;stroke-dasharray:none;stroke-opacity:1"
           id="rect10444"
           width="4.0690966"
           height="2.2703061"
           x="198.13051"
           y="60.260414"
           transform="matrix(0.68625976,0.72735654,-0.78320196,0.62176739,0,0)" /></g><rect
         style="fill:#000000;fill-opacity:1;fill-rule:evenodd;stroke:#000000;stroke-width:1.079;stroke-linecap:square;stroke-linejoin:bevel;stroke-miterlimit:7.2;stroke-dasharray:none;stroke-opacity:1"
         id="rect10472"
         width="3.3903704"
         height="0.81905395"
         x="89.78727"
         y="185.37169" /></g></g></svg>
